<?xml version="1.0" standalone="no"?>
<!DOCTYPE svg PUBLIC "-//W3C//DTD SVG 20010904//EN"
 "http://www.w3.org/TR/2001/REC-SVG-20010904/DTD/svg10.dtd">
<svg version="1.0" xmlns="http://www.w3.org/2000/svg"
 width="1280.000000pt" height="1280.000000pt" viewBox="0 0 1280.000000 1280.000000"
 preserveAspectRatio="xMidYMid meet">
<metadata>
Created by potrace 1.15, written by Peter Selinger 2001-2017
</metadata>
<g transform="translate(0.000000,1280.000000) scale(0.100000,-0.100000)"
fill="#000000" stroke="none">
<path d="M7387 9725 c-9 -8 -20 -30 -26 -48 -6 -18 -47 -283 -91 -587 -158
-1090 -150 -1019 -114 -1054 18 -18 47 -8 63 22 5 9 19 87 31 172 12 85 24
158 27 162 2 5 76 8 163 8 l158 0 6 -27 c3 -16 15 -104 27 -198 11 -93 26
-176 31 -182 29 -36 98 4 98 56 0 67 -77 695 -116 951 -53 343 -129 687 -161
722 -20 22 -76 24 -96 3z m128 -715 c36 -250 65 -461 65 -467 0 -10 -33 -13
-131 -13 l-131 0 6 43 c3 23 28 231 57 462 49 407 57 461 65 440 2 -5 33 -215
69 -465z"/>
<path d="M8560 9708 c-11 -18 -20 -37 -20 -41 0 -8 -23 -166 -55 -382 -24
-160 -93 -644 -120 -840 -14 -99 -30 -207 -35 -241 -15 -92 -12 -139 9 -165
18 -22 19 -22 44 -6 28 18 30 25 53 182 8 61 19 126 23 145 l7 35 162 3 c89 1
162 -1 162 -5 0 -54 54 -399 63 -405 20 -13 44 -9 68 11 29 24 29 59 -1 326
-64 560 -137 1012 -209 1290 -27 105 -41 125 -91 125 -35 0 -43 -5 -60 -32z
m140 -683 c34 -242 64 -452 67 -467 l6 -28 -132 0 c-129 0 -131 0 -131 23 0
12 14 128 30 257 16 129 42 333 57 452 15 120 30 215 34 210 3 -4 34 -205 69
-447z"/>
<path d="M5753 9641 c-50 -37 -87 -96 -107 -176 -42 -160 -2 -302 153 -544
136 -211 171 -292 191 -434 29 -223 -13 -379 -110 -408 -35 -11 -42 -10 -61 7
-32 29 -38 45 -48 139 -14 123 -51 156 -108 99 -24 -24 -25 -30 -19 -88 17
-166 97 -276 202 -276 45 0 127 43 163 86 90 109 132 261 112 414 -24 187 -77
313 -211 500 -126 176 -160 258 -160 380 0 128 43 210 111 210 48 0 75 -17
108 -68 33 -53 59 -66 96 -52 46 17 41 88 -10 147 -46 54 -116 86 -195 91 -60
3 -68 1 -107 -27z"/>
<path d="M1573 9649 c-26 -9 -58 -69 -68 -124 -4 -22 -34 -128 -67 -235 -32
-107 -61 -203 -64 -214 -4 -10 -10 -14 -14 -10 -5 5 -44 111 -88 235 -44 124
-87 239 -96 256 -45 88 -159 100 -143 16 3 -16 32 -93 64 -173 103 -248 193
-515 193 -568 0 -33 -37 -160 -129 -441 -71 -216 -127 -400 -124 -408 4 -10
19 -13 57 -11 l51 3 87 250 c129 370 140 397 148 388 4 -4 24 -55 45 -113 83
-238 188 -526 197 -543 12 -24 86 -20 102 5 12 20 5 46 -102 333 -124 335
-172 491 -172 562 0 71 37 207 136 495 60 175 74 247 56 274 -13 21 -47 32
-69 23z"/>
<path d="M4350 9642 l-25 -20 -11 -319 c-15 -409 -29 -1313 -20 -1346 5 -20
15 -28 42 -33 25 -4 40 -2 49 7 10 11 15 113 24 425 6 226 14 419 17 429 6 14
15 16 46 12 115 -15 140 -80 158 -402 6 -115 14 -237 18 -270 l7 -60 45 -3
c74 -4 75 -3 61 149 -6 74 -11 179 -11 234 -1 196 -32 321 -102 399 l-39 45
47 46 c85 86 128 215 127 390 0 98 -3 116 -27 167 -52 110 -138 160 -286 166
-84 4 -98 2 -120 -16z m204 -106 c67 -28 106 -108 106 -219 0 -180 -99 -367
-195 -367 l-35 0 1 108 c3 262 14 459 28 475 16 21 51 22 95 3z"/>
<path d="M7795 9629 c-37 -11 -55 -34 -55 -70 0 -35 22 -43 120 -44 l75 0 12
-370 c30 -947 31 -978 45 -986 19 -12 72 -11 85 2 8 8 10 53 7 143 -12 375
-24 767 -30 979 l-6 237 94 0 c82 0 97 3 113 20 15 17 16 24 7 45 -7 14 -22
29 -34 34 -33 12 -397 21 -433 10z"/>
<path d="M11011 9609 c-11 -17 -40 -90 -66 -162 -155 -430 -209 -567 -224
-567 -3 0 -62 154 -130 343 -67 188 -129 352 -137 365 -18 28 -63 29 -92 2
l-22 -21 -2 -522 c0 -287 -2 -533 -3 -547 -1 -14 -4 -122 -6 -240 l-4 -215 49
0 c46 0 50 2 57 28 15 57 29 390 30 725 0 191 4 370 8 397 l6 50 28 -71 c15
-39 55 -158 88 -264 33 -107 65 -200 71 -207 11 -14 61 -16 92 -4 19 7 48 71
175 388 40 101 77 181 81 178 4 -2 8 -39 9 -82 1 -43 6 -195 11 -338 5 -143
10 -390 10 -548 0 -179 4 -296 10 -308 14 -25 64 -25 90 1 24 24 24 21 10 560
-5 212 -11 537 -12 723 -3 322 -4 339 -22 353 -11 8 -35 14 -53 14 -27 0 -37
-6 -52 -31z"/>
<path d="M6620 9607 c-162 -46 -259 -201 -306 -493 -23 -147 -24 -516 -1 -654
31 -180 70 -281 140 -357 54 -59 110 -83 193 -83 135 0 220 73 265 227 32 111
72 547 55 601 -12 36 -75 52 -204 52 -113 0 -120 -1 -142 -25 -22 -23 -22 -25
-6 -50 16 -24 21 -25 110 -25 118 0 126 -7 126 -110 0 -102 -28 -345 -47 -405
-39 -128 -97 -178 -179 -155 -89 25 -157 143 -189 328 -20 117 -24 582 -6 687
52 303 192 439 347 338 27 -18 64 -40 81 -49 31 -17 34 -17 53 1 12 11 20 31
20 50 0 85 -184 158 -310 122z"/>
<path d="M1845 9577 c-17 -13 -16 -24 38 -238 31 -123 86 -359 122 -524 170
-777 177 -805 203 -823 49 -33 69 4 118 222 18 83 65 315 104 516 39 201 89
458 112 573 47 240 46 257 -20 257 -24 0 -45 -7 -55 -17 -10 -12 -41 -160 -92
-448 -42 -236 -87 -488 -100 -560 -13 -71 -26 -149 -30 -173 -4 -24 -9 -41
-12 -39 -4 4 -90 373 -127 547 -9 41 -43 210 -76 374 -33 165 -67 310 -75 323
-18 27 -79 32 -110 10z"/>
<path d="M2813 9569 c-17 -17 -16 -93 2 -319 18 -209 27 -354 51 -790 9 -168
21 -321 28 -340 10 -32 15 -35 52 -38 30 -2 45 2 58 16 15 18 16 29 7 103 -11
88 -15 146 -56 724 -14 193 -29 410 -34 484 -6 86 -15 139 -23 147 -20 20 -71
27 -85 13z"/>
<path d="M3248 9569 c-23 -13 -23 -60 -3 -297 16 -190 25 -334 51 -812 9 -168
21 -321 28 -340 10 -32 15 -35 52 -38 30 -2 45 2 58 17 16 18 17 28 7 113 -6
51 -21 224 -32 383 -11 160 -24 353 -30 430 -5 77 -16 225 -23 328 -9 135 -17
192 -27 202 -20 19 -61 27 -81 14z"/>
<path d="M5039 9547 c-36 -28 -40 -52 -33 -234 3 -98 9 -431 13 -740 5 -437 9
-565 19 -575 20 -20 387 -18 427 2 35 18 41 38 21 65 -13 19 -27 20 -183 20
l-168 0 0 43 c1 23 2 147 3 276 l2 233 53 6 c187 22 232 40 232 92 0 36 -29
45 -105 34 -30 -4 -83 -12 -117 -17 l-62 -9 -6 61 c-3 34 -5 192 -3 351 l3
290 145 5 c157 5 190 15 190 54 0 48 -32 56 -232 56 -128 -1 -188 -4 -199 -13z"/>
<path d="M11394 9534 l-26 -25 6 -277 c3 -152 9 -492 12 -754 l6 -478 41 -11
c54 -14 350 -7 395 10 26 11 32 19 32 42 0 46 -21 50 -202 43 l-161 -7 6 183
c4 101 7 227 7 280 l0 97 53 6 c190 22 237 41 237 93 0 37 -45 46 -153 28
-137 -22 -137 -22 -142 -15 -2 4 -5 162 -6 351 l-2 345 150 5 c130 4 154 8
172 24 28 25 26 40 -5 65 -25 20 -40 21 -211 21 -184 0 -184 0 -209 -26z"/>
<path d="M9590 8798 c-293 -6 -459 -13 -467 -20 -20 -16 -16 -72 7 -93 19 -17
25 -17 122 -2 79 13 189 17 463 19 202 1 365 6 373 11 6 5 12 25 12 43 0 28
-5 36 -26 44 -14 6 -26 9 -27 8 -1 -1 -207 -5 -457 -10z"/>
<path d="M8442 8008 c-20 -25 43 -506 93 -713 46 -188 106 -264 141 -180 26
62 62 212 114 468 27 135 58 268 69 295 20 50 19 62 -5 62 -17 0 -27 -36 -74
-280 -87 -440 -113 -550 -130 -550 -28 0 -75 311 -100 675 -16 225 -17 229
-61 233 -21 2 -40 -3 -47 -10z"/>
<path d="M10062 8007 c-9 -10 -8 -48 4 -153 52 -488 124 -774 193 -774 37 0
76 133 147 495 19 99 46 217 60 261 28 96 29 104 9 104 -21 0 -37 -64 -95
-370 -45 -235 -93 -446 -105 -458 -10 -11 -24 13 -35 61 -19 88 -48 322 -65
532 -9 110 -19 225 -23 255 -7 54 -7 55 -43 58 -21 2 -40 -2 -47 -11z"/>
<path d="M9173 7981 c-21 -13 -41 -41 -61 -83 -37 -80 -51 -138 -61 -263 -6
-84 -14 -112 -43 -175 -43 -92 -69 -126 -91 -117 -21 8 -22 41 -1 147 17 90
11 110 -32 110 -30 0 -39 -30 -38 -130 0 -87 17 -130 56 -144 24 -8 32 -6 57
18 16 16 40 53 53 82 13 30 26 54 29 54 3 0 9 -29 13 -64 12 -122 54 -216 96
-216 30 0 74 56 124 155 26 52 50 95 54 95 4 0 8 -14 9 -31 5 -72 60 -102 103
-57 11 12 20 25 20 29 0 3 8 24 17 45 l17 39 7 -82 c7 -93 26 -133 63 -133 14
0 34 12 49 29 34 41 129 228 125 247 -2 9 -27 -32 -56 -90 -52 -103 -95 -166
-113 -166 -13 0 -11 49 11 214 11 82 17 153 14 157 -3 5 -18 9 -34 9 -20 0
-31 -6 -35 -21 -6 -19 -8 -19 -24 -5 -21 20 -70 20 -94 2 -10 -8 -57 -90 -104
-183 -113 -224 -150 -271 -167 -210 -8 29 -8 341 0 399 6 39 10 46 39 57 85
30 156 212 109 279 -19 28 -67 29 -111 3z m95 -13 c35 -35 -2 -163 -66 -230
-29 -32 -62 -38 -57 -10 21 105 41 174 62 210 25 43 40 51 61 30z"/>
<path d="M10853 7981 c-63 -39 -123 -223 -123 -377 0 -138 -126 -293 -182
-224 -10 13 -18 38 -18 61 0 34 7 46 45 82 50 48 57 78 23 101 -45 32 -109 -8
-127 -79 -16 -63 -14 -93 10 -142 17 -35 28 -45 61 -55 35 -10 45 -9 77 8 20
10 50 40 66 66 17 26 33 47 36 47 4 1 10 -25 13 -56 15 -126 55 -213 97 -213
32 0 74 55 135 174 65 129 74 141 75 100 1 -62 53 -154 75 -132 3 4 15 40 26
80 21 80 57 159 75 165 8 3 12 -42 15 -149 3 -167 14 -202 65 -214 36 -9 59
18 95 114 31 80 33 83 41 56 15 -44 28 -55 61 -52 27 3 35 11 62 64 l31 62 6
-67 c8 -90 23 -130 54 -137 38 -10 76 35 138 162 30 62 55 115 55 119 0 21
-26 -19 -71 -108 -55 -110 -85 -157 -100 -157 -14 0 -11 113 7 237 9 62 14
120 10 128 -8 22 -53 19 -66 -6 -11 -19 -13 -19 -29 -5 -37 34 -97 12 -127
-46 -9 -17 -32 -81 -51 -142 -19 -61 -47 -133 -60 -160 -24 -48 -26 -49 -40
-30 -12 15 -13 41 -8 135 8 147 0 205 -30 225 -21 14 -27 14 -53 0 -32 -16
-91 -120 -93 -160 0 -21 -1 -21 -9 -1 -5 11 -9 57 -9 101 -1 76 1 83 24 98 92
61 157 213 109 260 -45 45 -122 21 -162 -51 -30 -54 -52 -160 -52 -251 0 -70
-3 -78 -65 -199 -97 -188 -135 -230 -149 -162 -8 40 -8 318 0 385 6 47 9 52
40 63 86 31 162 234 106 284 -25 23 -70 21 -109 -2z m103 -26 c27 -41 -4 -138
-67 -210 -36 -41 -59 -45 -59 -12 0 41 39 178 61 213 25 40 43 43 65 9z m269
-55 c32 -35 -3 -140 -68 -201 l-32 -31 -3 28 c-6 47 20 173 40 200 23 29 39
30 63 4z"/>
</g>
</svg>
